<svg
															width="24"
															height="24"
															viewBox="0 0 24 24"
															fill="none"
															xmlns="http://www.w3.org/2000/svg"
														>
															<circle
																cx="12"
																cy="12.0004"
																r="11.5"
																fill="#3D2C5C"
																stroke="#493872"
															/>
															<g clip-path="url(#clip0_819_4640)">
																<path
																	d="M12.1919 4.00037C7.66821 4.00037 4 7.66794 4 12.1922C4 15.8117 6.34722 18.8823 9.60213 19.9656C10.0115 20.0414 10.1619 19.7878 10.1619 19.5715C10.1619 19.3761 10.1542 18.7308 10.1507 18.0463C7.87169 18.5418 7.39079 17.0797 7.39079 17.0797C7.01816 16.1329 6.48124 15.8811 6.48124 15.8811C5.73802 15.3727 6.53726 15.3831 6.53726 15.3831C7.35989 15.4409 7.79305 16.2273 7.79305 16.2273C8.52367 17.4797 9.70942 17.1176 10.1769 16.9083C10.2504 16.3788 10.4627 16.0175 10.697 15.8129C8.87748 15.6057 6.9647 14.9033 6.9647 11.7644C6.9647 10.8701 7.28472 10.1393 7.80879 9.56562C7.72372 9.35925 7.44335 8.52609 7.88813 7.39771C7.88813 7.39771 8.57603 7.17753 10.1415 8.23743C10.7949 8.05586 11.4957 7.96489 12.1919 7.9618C12.8881 7.96489 13.5894 8.05586 14.2441 8.23743C15.8077 7.17753 16.4946 7.39771 16.4946 7.39771C16.9405 8.52609 16.66 9.35925 16.5749 9.56562C17.1001 10.1393 17.418 10.87 17.418 11.7644C17.418 14.9108 15.5016 15.6036 13.6775 15.8064C13.9713 16.0606 14.2331 16.5592 14.2331 17.3234C14.2331 18.4194 14.2236 19.3016 14.2236 19.5715C14.2236 19.7895 14.371 20.0449 14.7863 19.9645C18.0394 18.88 20.3837 15.8105 20.3837 12.1922C20.3837 7.66794 16.716 4.00037 12.1919 4.00037Z"
																	fill="#CCCCE0"
																/>
																<path
																	d="M7.06804 15.6699C7.05005 15.7106 6.98593 15.7228 6.92766 15.6949C6.86823 15.6682 6.83482 15.6126 6.8541 15.5718C6.87177 15.5299 6.93588 15.5182 6.99518 15.5463C7.05474 15.573 7.08867 15.629 7.06804 15.6699ZM7.471 16.0294C7.43194 16.0657 7.35555 16.0488 7.3037 15.9916C7.25012 15.9345 7.2401 15.8581 7.27974 15.8213C7.32002 15.7851 7.3941 15.802 7.44781 15.8592C7.50139 15.917 7.5118 15.9929 7.47094 16.0295M7.74746 16.4894C7.69722 16.5243 7.61511 16.4916 7.56442 16.4188C7.51424 16.346 7.51424 16.2586 7.56551 16.2236C7.61639 16.1886 7.69722 16.22 7.74862 16.2923C7.79873 16.3664 7.79873 16.4538 7.74739 16.4895M8.21492 17.0222C8.17002 17.0717 8.07441 17.0585 8.00438 16.9909C7.93281 16.9248 7.91283 16.8311 7.95787 16.7816C8.00329 16.732 8.09947 16.7459 8.17002 16.8129C8.24114 16.8788 8.26279 16.9733 8.21492 17.0222ZM8.81911 17.2021C8.79938 17.2662 8.70725 17.2954 8.61448 17.2682C8.52183 17.2401 8.46119 17.1649 8.47988 17.1001C8.49916 17.0355 8.59167 17.0051 8.68515 17.0343C8.77767 17.0623 8.83838 17.1369 8.81911 17.2021ZM9.50681 17.2784C9.50913 17.346 9.43042 17.402 9.33302 17.4032C9.23505 17.4053 9.15583 17.3507 9.1548 17.2842C9.1548 17.216 9.23171 17.1605 9.32962 17.1589C9.42702 17.157 9.50681 17.2113 9.50681 17.2784ZM10.1823 17.2525C10.194 17.3184 10.1263 17.3861 10.0296 17.4041C9.93451 17.4215 9.84649 17.3808 9.83435 17.3155C9.82253 17.2479 9.89153 17.1802 9.98642 17.1627C10.0833 17.1458 10.17 17.1855 10.1823 17.2525Z"
																	fill="#CCCCE0"
																/>
															</g>
															<defs>
																<clipPath id="clip0_819_4640">
																	<rect
																		width="16.4474"
																		height="16"
																		fill="white"
																		transform="translate(4 4.00037)"
																	/>
																</clipPath>
															</defs>
														</svg>