<svg
															width="24"
															height="24"
															viewBox="0 0 24 24"
															fill="none"
															xmlns="http://www.w3.org/2000/svg"
														>
															<circle
																cx="12"
																cy="12.0004"
																r="11.5"
																fill="#3D2C5C"
																stroke="#493872"
															/>
															<g clip-path="url(#clip0_819_4682)">
																<path
																	d="M16.4 12.5979C16.3989 12.7033 16.3562 12.8039 16.2813 12.878C16.2064 12.9521 16.1054 12.9936 16 12.9936C15.8947 12.9936 15.7936 12.9521 15.7187 12.878C15.6438 12.8039 15.6011 12.7033 15.6 12.5979V9.00037C15.6011 8.89503 15.6438 8.79439 15.7187 8.7203C15.7936 8.64622 15.8947 8.60467 16 8.60467C16.1054 8.60467 16.2064 8.64622 16.2813 8.7203C16.3562 8.79439 16.3989 8.89503 16.4 9.00037V12.5979ZM16.2604 15.1017C16.1986 15.1546 14.7168 16.398 12 16.398C9.28322 16.398 7.8015 15.1545 7.73967 15.1016C7.65914 15.0326 7.60933 14.9343 7.6012 14.8286C7.59307 14.7228 7.62728 14.6181 7.69631 14.5376C7.7652 14.4571 7.86317 14.4073 7.96874 14.3991C8.0743 14.3908 8.17884 14.4247 8.25942 14.4934C8.28291 14.5131 9.60609 15.5979 12 15.5979C14.424 15.5979 15.7268 14.5053 15.7396 14.4943C15.907 14.3505 16.16 14.3698 16.3037 14.5376C16.3727 14.6182 16.407 14.7228 16.3989 14.8286C16.3908 14.9344 16.341 15.0326 16.2604 15.1017ZM7.59998 9.00037C7.60112 8.89503 7.64377 8.79439 7.71866 8.7203C7.79355 8.64622 7.89465 8.60467 7.99999 8.60467C8.10534 8.60467 8.20643 8.64622 8.28132 8.7203C8.35621 8.79439 8.39886 8.89503 8.4 9.00037V12.5979C8.39886 12.7033 8.35621 12.8039 8.28132 12.878C8.20643 12.9521 8.10534 12.9936 7.99999 12.9936C7.89465 12.9936 7.79355 12.9521 7.71866 12.878C7.64377 12.8039 7.60112 12.7033 7.59998 12.5979V9.00037ZM9.60005 8.20035C9.60166 8.09533 9.6445 7.99515 9.71934 7.92145C9.79418 7.84775 9.895 7.80644 10 7.80644C10.1051 7.80644 10.2059 7.84775 10.2807 7.92145C10.3556 7.99515 10.3984 8.09533 10.4 8.20035V13.5441C10.3984 13.6492 10.3556 13.7493 10.2807 13.823C10.2059 13.8967 10.1051 13.9381 10 13.9381C9.895 13.9381 9.79418 13.8967 9.71934 13.823C9.6445 13.7493 9.60166 13.6492 9.60005 13.5441V8.20035ZM11.6 7.99794C11.6 7.94542 11.6104 7.8934 11.6305 7.84487C11.6505 7.79634 11.68 7.75224 11.7172 7.7151C11.7543 7.67796 11.7984 7.64849 11.8469 7.62839C11.8955 7.6083 11.9475 7.59795 12 7.59796C12.0525 7.59795 12.1046 7.60828 12.1531 7.62838C12.2016 7.64848 12.2457 7.67794 12.2829 7.71508C12.32 7.75223 12.3495 7.79632 12.3696 7.84486C12.3897 7.89339 12.4 7.94541 12.4 7.99794V13.7979C12.3989 13.9033 12.3562 14.0039 12.2814 14.078C12.2065 14.1521 12.1054 14.1936 12 14.1936C11.8947 14.1936 11.7936 14.1521 11.7187 14.078C11.6438 14.0039 11.6012 13.9033 11.6 13.7979V7.99794ZM13.6 8.20035C13.6016 8.09533 13.6445 7.99515 13.7193 7.92145C13.7942 7.84775 13.895 7.80644 14 7.80644C14.1051 7.80644 14.2059 7.84775 14.2807 7.92145C14.3555 7.99515 14.3984 8.09533 14.4 8.20035V13.5441C14.3984 13.6492 14.3555 13.7493 14.2807 13.823C14.2059 13.8967 14.1051 13.9381 14 13.9381C13.895 13.9381 13.7942 13.8967 13.7193 13.823C13.6445 13.7493 13.6016 13.6492 13.6 13.5441V8.20035ZM16.5 6.00037H7.5C6.67158 6.00037 6 6.67194 6 7.50037V16.5004C6 17.3287 6.67158 18.0004 7.5 18.0004H16.5C17.3284 18.0004 18 17.3287 18 16.5004V7.50037C18 6.67194 17.3284 6.00037 16.5 6.00037Z"
																	fill="#A6A6C9"
																/>
															</g>
															<defs>
																<clipPath id="clip0_819_4682">
																	<rect
																		width="12"
																		height="12"
																		fill="white"
																		transform="translate(6 6.00037)"
																	/>
																</clipPath>
															</defs>
														</svg>