<svg
															width="24"
															height="24"
															viewBox="0 0 24 24"
															fill="none"
															xmlns="http://www.w3.org/2000/svg"
														>
															<circle
																cx="12"
																cy="12.0004"
																r="11.5"
																fill="#3D2C5C"
																stroke="#493872"
															/>
															<g clip-path="url(#clip0_819_4654)">
																<path
																	d="M10.6582 7.22244C11.1743 6.68478 11.8927 6.35131 12.6872 6.35131C13.7434 6.35131 14.6648 6.94025 15.1556 7.81455C15.582 7.62402 16.054 7.51803 16.5507 7.51803C18.4556 7.51803 20 9.07587 20 10.9975C20 12.9193 18.4556 14.4771 16.5507 14.4771C16.3225 14.4772 16.0949 14.4546 15.8712 14.4094C15.4391 15.1802 14.6156 15.701 13.6704 15.701C13.2748 15.701 12.9005 15.6097 12.5673 15.4471C12.1292 16.4776 11.1086 17.2001 9.91909 17.2001C8.68034 17.2001 7.62462 16.4163 7.21938 15.317C7.04229 15.3546 6.85881 15.3742 6.67054 15.3742C5.19568 15.3742 4 14.1662 4 12.6759C4 11.6771 4.53721 10.8051 5.33538 10.3385C5.17106 9.96044 5.07966 9.54311 5.07966 9.10435C5.07966 7.3904 6.47111 6.00101 8.18736 6.00101C9.19499 6.00101 10.0905 6.48009 10.6582 7.22244Z"
																	fill="#A6A6C9"
																/>
																<path
																	d="M6.31758 11.8084C6.30755 11.8346 6.32123 11.8401 6.32442 11.8446C6.3545 11.8665 6.38505 11.8823 6.41582 11.8998C6.57901 11.9864 6.7331 12.0117 6.89424 12.0117C7.22244 12.0117 7.42619 11.8371 7.42619 11.5561V11.5506C7.42619 11.2908 7.19623 11.1964 6.98039 11.1283L6.95236 11.1192C6.78962 11.0663 6.64922 11.0207 6.64922 10.9136V10.9079C6.64922 10.8163 6.73127 10.7488 6.85846 10.7488C6.99977 10.7488 7.16752 10.7958 7.27555 10.8555C7.27555 10.8555 7.30722 10.876 7.31885 10.8452C7.32523 10.8288 7.37994 10.6816 7.38564 10.6656C7.39179 10.6483 7.38085 10.6355 7.36969 10.6287C7.24638 10.5537 7.07589 10.5024 6.89949 10.5024L6.86667 10.5026C6.56628 10.5026 6.35659 10.6841 6.35659 10.9441V10.9496C6.35659 11.2238 6.58793 11.3127 6.80469 11.3747L6.83956 11.3854C6.99751 11.4339 7.13358 11.4756 7.13358 11.5869V11.5923C7.13358 11.694 7.04515 11.7696 6.90247 11.7696C6.84708 11.7696 6.67044 11.7685 6.47968 11.6479C6.45665 11.6345 6.44321 11.6247 6.42543 11.614C6.41609 11.608 6.39261 11.5978 6.38236 11.6288L6.31758 11.8084ZM11.1224 11.8084C11.1123 11.8346 11.126 11.8401 11.1292 11.8446C11.1593 11.8665 11.1898 11.8823 11.2206 11.8998C11.3838 11.9864 11.5379 12.0117 11.699 12.0117C12.0272 12.0117 12.231 11.8371 12.231 11.5561V11.5506C12.231 11.2908 12.001 11.1964 11.7851 11.1283L11.7571 11.1192C11.5944 11.0663 11.454 11.0207 11.454 10.9136V10.9079C11.454 10.8163 11.536 10.7488 11.6632 10.7488C11.8045 10.7488 11.9723 10.7958 12.0803 10.8555C12.0803 10.8555 12.112 10.876 12.1236 10.8452C12.13 10.8288 12.1847 10.6816 12.1904 10.6656C12.1965 10.6483 12.1856 10.6355 12.1744 10.6287C12.0511 10.5537 11.8806 10.5024 11.7042 10.5024L11.6714 10.5026C11.371 10.5026 11.1613 10.6841 11.1613 10.9441V10.9496C11.1613 11.2238 11.3927 11.3127 11.6094 11.3747L11.6443 11.3854C11.8022 11.4339 11.9385 11.4756 11.9385 11.5869V11.5923C11.9385 11.694 11.8499 11.7696 11.7072 11.7696C11.6518 11.7696 11.4752 11.7685 11.2844 11.6479C11.2614 11.6345 11.2477 11.6251 11.2304 11.614C11.2245 11.6101 11.1967 11.5994 11.1871 11.6288L11.1224 11.8084ZM14.4024 11.2579C14.4024 11.4168 14.3728 11.5419 14.3145 11.6304C14.2568 11.7179 14.1695 11.7605 14.0478 11.7605C13.9259 11.7605 13.8391 11.7181 13.7823 11.6304C13.7248 11.5422 13.6957 11.4168 13.6957 11.2579C13.6957 11.0993 13.7248 10.9744 13.7823 10.8869C13.8391 10.8003 13.9259 10.7581 14.0478 10.7581C14.1695 10.7581 14.2568 10.8003 14.3147 10.8869C14.3728 10.9744 14.4024 11.0993 14.4024 11.2579ZM14.6764 10.9635C14.6495 10.8725 14.6076 10.7923 14.5517 10.7255C14.4959 10.6585 14.4253 10.6047 14.3414 10.5655C14.2577 10.5265 14.1588 10.5067 14.0478 10.5067C13.9366 10.5067 13.8377 10.5265 13.754 10.5655C13.6701 10.6047 13.5995 10.6585 13.5434 10.7255C13.4878 10.7925 13.4459 10.8727 13.4188 10.9635C13.3921 11.0539 13.3786 11.1529 13.3786 11.2579C13.3786 11.363 13.3921 11.4622 13.4188 11.5524C13.4459 11.6431 13.4876 11.7234 13.5437 11.7904C13.5995 11.8574 13.6704 11.9109 13.754 11.949C13.8379 11.987 13.9366 12.0064 14.0478 12.0064C14.1588 12.0064 14.2575 11.987 14.3414 11.949C14.425 11.9109 14.4959 11.8574 14.5518 11.7904C14.6076 11.7236 14.6495 11.6433 14.6764 11.5524C14.7033 11.4619 14.7168 11.3628 14.7168 11.2579C14.7168 11.1531 14.7033 11.0539 14.6764 10.9635ZM16.9261 11.7181C16.917 11.6914 16.8913 11.7014 16.8913 11.7014C16.8514 11.7167 16.809 11.7308 16.7639 11.7379C16.718 11.7449 16.6677 11.7486 16.6137 11.7486C16.481 11.7486 16.3757 11.7092 16.3003 11.6312C16.2246 11.5533 16.1822 11.4273 16.1827 11.2568C16.1831 11.1016 16.2205 10.9848 16.2877 10.896C16.3545 10.8075 16.4562 10.7622 16.5918 10.7622C16.7048 10.7622 16.791 10.7752 16.8812 10.8037C16.8812 10.8037 16.9029 10.813 16.9131 10.7847C16.9371 10.7182 16.9548 10.6705 16.9804 10.5974C16.9877 10.5766 16.9699 10.5678 16.9635 10.5652C16.9279 10.5513 16.8441 10.5288 16.7807 10.5192C16.7215 10.5101 16.6522 10.5053 16.5751 10.5053C16.46 10.5053 16.3575 10.5249 16.2697 10.5641C16.1822 10.6031 16.1079 10.6569 16.0491 10.7239C15.9903 10.7909 15.9456 10.8711 15.9158 10.9618C15.8861 11.0523 15.8711 11.1517 15.8711 11.2568C15.8711 11.484 15.9324 11.6677 16.0534 11.8022C16.1747 11.9371 16.3568 12.0057 16.5943 12.0057C16.7347 12.0057 16.8787 11.9772 16.9822 11.9364C16.9822 11.9364 17.0021 11.9268 16.9934 11.9038L16.9261 11.7181ZM17.4055 11.1058C17.4185 11.0176 17.4429 10.9441 17.4805 10.887C17.5372 10.8001 17.6238 10.7525 17.7456 10.7525C17.8673 10.7525 17.9477 10.8003 18.0054 10.887C18.0437 10.9441 18.0603 11.0208 18.0669 11.1058H17.4055ZM18.3279 10.9118C18.3046 10.824 18.247 10.7354 18.2091 10.6948C18.1494 10.6305 18.0911 10.5856 18.0332 10.5605C17.9575 10.5282 17.8668 10.5068 17.7674 10.5068C17.6516 10.5068 17.5466 10.5261 17.4613 10.5663C17.3759 10.6064 17.3041 10.6611 17.2478 10.7292C17.1915 10.7971 17.1491 10.8781 17.1222 10.9699C17.0951 11.0613 17.0814 11.1609 17.0814 11.266C17.0814 11.3729 17.0955 11.4725 17.1236 11.562C17.1518 11.6523 17.1969 11.7318 17.258 11.7977C17.3189 11.864 17.3973 11.916 17.4912 11.9522C17.5844 11.9882 17.6977 12.0069 17.8278 12.0067C18.0956 12.0058 18.2367 11.9461 18.2948 11.9139C18.3051 11.9082 18.3149 11.8982 18.3026 11.8695L18.242 11.6997C18.2329 11.6744 18.2071 11.6837 18.2071 11.6837C18.1407 11.7083 18.0464 11.7526 17.8264 11.7521C17.6826 11.7519 17.576 11.7095 17.5092 11.6432C17.4406 11.5752 17.4071 11.4754 17.4011 11.3346L18.3285 11.3355C18.3285 11.3355 18.3529 11.335 18.3555 11.3113C18.3564 11.3013 18.3874 11.1208 18.3279 10.9118ZM9.9783 11.1058C9.99151 11.0176 10.0157 10.9441 10.0533 10.887C10.11 10.8001 10.1966 10.7525 10.3183 10.7525C10.4401 10.7525 10.5205 10.8003 10.5784 10.887C10.6165 10.9441 10.6331 11.0208 10.6397 11.1058H9.9783ZM10.9004 10.9118C10.8772 10.824 10.8198 10.7354 10.7819 10.6948C10.7222 10.6305 10.6639 10.5856 10.606 10.5605C10.5303 10.5282 10.4396 10.5068 10.3402 10.5068C10.2247 10.5068 10.1194 10.5261 10.0341 10.5663C9.94868 10.6064 9.87688 10.6611 9.82059 10.7292C9.76429 10.7971 9.7219 10.8781 9.695 10.9699C9.66811 11.0613 9.65421 11.1609 9.65421 11.266C9.65421 11.3729 9.66834 11.4725 9.69638 11.562C9.72465 11.6523 9.76978 11.7318 9.83085 11.7977C9.89171 11.864 9.97011 11.916 10.064 11.9522C10.1572 11.9882 10.2705 12.0069 10.4007 12.0067C10.6685 12.0058 10.8095 11.9461 10.8677 11.9139C10.8779 11.9082 10.8877 11.8982 10.8754 11.8695L10.815 11.6997C10.8057 11.6744 10.7799 11.6837 10.7799 11.6837C10.7136 11.7083 10.6195 11.7526 10.3991 11.7521C10.2555 11.7519 10.1488 11.7095 10.082 11.6432C10.0134 11.5752 9.97993 11.4754 9.97399 11.3346L10.9014 11.3355C10.9014 11.3355 10.9258 11.335 10.9283 11.3113C10.9292 11.3013 10.9602 11.1208 10.9004 10.9118ZM7.97372 11.713C7.93747 11.684 7.93246 11.6768 7.92016 11.6581C7.90192 11.6296 7.89258 11.589 7.89258 11.5375C7.89258 11.4559 7.91947 11.3973 7.97532 11.3579C7.97464 11.3581 8.05509 11.2884 8.24426 11.2909C8.37713 11.2927 8.49587 11.3123 8.49587 11.3123V11.734H8.49609C8.49609 11.734 8.37826 11.7593 8.24562 11.7672C8.0569 11.7786 7.97303 11.7128 7.97372 11.713ZM8.34271 11.0614C8.3051 11.0586 8.25632 11.057 8.19797 11.057C8.11844 11.057 8.04162 11.0671 7.9696 11.0864C7.89713 11.1058 7.83194 11.1361 7.77587 11.1762C7.71988 11.2162 7.67387 11.2685 7.6414 11.3292C7.60858 11.3902 7.59194 11.4623 7.59194 11.543C7.59194 11.625 7.60607 11.6963 7.63434 11.7547C7.6626 11.8133 7.7034 11.862 7.75535 11.8997C7.80686 11.9373 7.87046 11.9648 7.94429 11.9815C8.01701 11.9981 8.09951 12.0065 8.18977 12.0065C8.28481 12.0065 8.37963 11.9988 8.47148 11.9831C8.56242 11.9676 8.6741 11.945 8.70509 11.9379C8.72682 11.9327 8.74847 11.9272 8.77005 11.9213C8.79308 11.9156 8.79125 11.891 8.79125 11.891L8.79079 11.0429C8.79079 10.8569 8.74111 10.719 8.64333 10.6336C8.546 10.5483 8.40264 10.5052 8.21735 10.5052C8.14783 10.5052 8.03592 10.5148 7.96891 10.5282C7.96891 10.5282 7.76629 10.5675 7.68286 10.6326C7.68286 10.6326 7.66464 10.644 7.67466 10.6696L7.74031 10.846C7.74851 10.8688 7.77063 10.861 7.77063 10.861C7.77063 10.861 7.7777 10.8583 7.78591 10.8535C7.96438 10.7564 8.19001 10.7594 8.19001 10.7594C8.2903 10.7594 8.36734 10.7794 8.4193 10.8193C8.46989 10.858 8.49565 10.9166 8.49565 11.0401V11.0794C8.41587 11.068 8.34271 11.0614 8.34271 11.0614ZM15.8227 10.5835C15.8297 10.5625 15.8149 10.5525 15.8087 10.5502C15.793 10.5441 15.7142 10.5274 15.6533 10.5236C15.5368 10.5165 15.4721 10.5361 15.4142 10.5621C15.3568 10.5881 15.293 10.63 15.2574 10.6776V10.5648C15.2574 10.5491 15.2462 10.5366 15.2307 10.5366H14.993C14.9775 10.5366 14.9664 10.5491 14.9664 10.5648V11.9481C14.9664 11.9636 14.9791 11.9763 14.9946 11.9763H15.2383C15.2457 11.9763 15.2529 11.9733 15.2581 11.968C15.2634 11.9627 15.2663 11.9555 15.2663 11.9481V11.257C15.2663 11.1643 15.2766 11.0717 15.2971 11.0136C15.3171 10.9562 15.3445 10.9101 15.3782 10.8771C15.4122 10.8443 15.4507 10.8212 15.4929 10.8083C15.5359 10.795 15.5835 10.7907 15.6173 10.7907C15.6658 10.7907 15.7192 10.8032 15.7192 10.8032C15.7369 10.8053 15.747 10.7943 15.7529 10.7782C15.7689 10.7358 15.814 10.6088 15.8227 10.5835Z"
																	fill="white"
																/>
																<path
																	d="M13.5353 9.9424C13.5057 9.93329 13.4788 9.92713 13.4437 9.92053C13.4081 9.91415 13.3657 9.91095 13.3177 9.91095C13.1499 9.91095 13.0177 9.95836 12.9249 10.0518C12.8326 10.1448 12.7699 10.2863 12.7385 10.4726L12.7271 10.5352H12.5165C12.5165 10.5352 12.491 10.5343 12.4855 10.5621L12.4511 10.7552C12.4486 10.7734 12.4566 10.785 12.4812 10.785H12.6861L12.4782 11.9456C12.462 12.039 12.4433 12.1159 12.4226 12.1742C12.4023 12.2316 12.3825 12.2747 12.3579 12.3062C12.3342 12.3363 12.3118 12.3586 12.2731 12.3716C12.2412 12.3823 12.2042 12.3873 12.1639 12.3873C12.1416 12.3873 12.1117 12.3836 12.0896 12.3791C12.0677 12.3747 12.0561 12.37 12.0395 12.3629C12.0395 12.3629 12.0155 12.3538 12.006 12.3777C11.9984 12.3975 11.9437 12.5477 11.9371 12.5662C11.9307 12.5847 11.9399 12.599 11.9515 12.6034C11.9788 12.6129 11.9991 12.6193 12.0363 12.6282C12.0878 12.6403 12.1313 12.641 12.1721 12.641C12.2573 12.641 12.3353 12.6289 12.3998 12.6056C12.4645 12.5822 12.521 12.5414 12.5712 12.4862C12.6252 12.4265 12.6591 12.364 12.6915 12.2786C12.7237 12.1942 12.7513 12.0894 12.7731 11.9672L12.9821 10.785H13.2875C13.2875 10.785 13.3133 10.7859 13.3185 10.7579L13.3532 10.5651C13.3555 10.5466 13.3477 10.5352 13.3229 10.5352H13.0263C13.0279 10.5286 13.0414 10.4242 13.0753 10.326C13.0899 10.2843 13.1173 10.2503 13.1403 10.2271C13.1631 10.2043 13.1893 10.1881 13.218 10.1788C13.2474 10.1692 13.281 10.1646 13.3176 10.1646C13.3454 10.1646 13.373 10.1678 13.3938 10.1722C13.4225 10.1783 13.4336 10.1815 13.4412 10.1838C13.4715 10.1929 13.4756 10.184 13.4815 10.1694L13.5524 9.97481C13.5597 9.95379 13.5417 9.9449 13.5353 9.9424ZM9.3923 11.9481C9.3923 11.9636 9.38113 11.9762 9.36563 11.9762H9.1197C9.1042 11.9762 9.09326 11.9636 9.09326 11.9481V9.96885C9.09326 9.95336 9.1042 9.94082 9.1197 9.94082H9.36563C9.38113 9.94082 9.3923 9.95336 9.3923 9.96885V11.9481Z"
																	fill="white"
																/>
															</g>
															<defs>
																<clipPath id="clip0_819_4654">
																	<rect
																		width="16"
																		height="11.2"
																		fill="white"
																		transform="translate(4 6.00037)"
																	/>
																</clipPath>
															</defs>
														</svg>