<svg
															width="24"
															height="24"
															viewBox="0 0 24 24"
															fill="none"
															xmlns="http://www.w3.org/2000/svg"
														>
															<circle
																cx="12"
																cy="12.0004"
																r="11.5"
																fill="#3D2C5C"
																stroke="#493872"
															/>
															<g clip-path="url(#clip0_819_4668)">
																<path
																	d="M16.7295 7.74918C16.7199 7.67918 16.6586 7.64044 16.6079 7.63618C16.5573 7.63196 15.4868 7.55261 15.4868 7.55261C15.4868 7.55261 14.7433 6.81449 14.6617 6.73279C14.58 6.65114 14.4206 6.67598 14.3587 6.6942C14.3496 6.69688 14.1962 6.7442 13.9426 6.82269C13.6942 6.10802 13.2559 5.45126 12.4848 5.45126C12.4635 5.45126 12.4416 5.45213 12.4197 5.45337C12.2004 5.16335 11.9288 5.03735 11.6941 5.03735C9.89785 5.03735 9.03967 7.28287 8.77061 8.42396C8.07262 8.64024 7.57677 8.794 7.51343 8.8139C7.12383 8.93611 7.11151 8.94839 7.06035 9.31551C7.02185 9.59344 6.00244 17.477 6.00244 17.477L13.9459 18.9653L18.2499 18.0342C18.2499 18.0342 16.739 7.81918 16.7295 7.74918ZM13.5036 6.95847L12.8314 7.1665C12.8317 7.11913 12.8319 7.07253 12.8319 7.02157C12.8319 6.5774 12.7702 6.21978 12.6713 5.93628C13.0687 5.98614 13.3333 6.43822 13.5036 6.95847ZM12.1785 6.02435C12.2889 6.30114 12.3607 6.69837 12.3607 7.2344C12.3607 7.26182 12.3605 7.2869 12.3603 7.31226C11.9231 7.44766 11.4482 7.59466 10.9721 7.74213C11.2394 6.71055 11.7404 6.2123 12.1785 6.02435ZM11.6448 5.51915C11.7223 5.51915 11.8004 5.54548 11.8752 5.59692C11.2995 5.86781 10.6824 6.55007 10.4218 7.91253L9.32456 8.25237C9.62978 7.21316 10.3546 5.51915 11.6448 5.51915Z"
																	fill="#A6A6C9"
																/>
																<path
																	d="M16.6079 7.63653C16.5573 7.63231 15.4868 7.55296 15.4868 7.55296C15.4868 7.55296 14.7433 6.81484 14.6617 6.73314C14.6311 6.70274 14.59 6.68716 14.5469 6.68045L13.9463 18.9656L18.2499 18.0346C18.2499 18.0346 16.739 7.81953 16.7295 7.74953C16.7199 7.67953 16.6585 7.64079 16.6079 7.63653Z"
																	fill="#B3B3D0"
																/>
																<path
																	d="M12.4846 10.0147L11.9539 11.5934C11.9539 11.5934 11.4889 11.3452 10.919 11.3452C10.0834 11.3452 10.0413 11.8696 10.0413 12.0017C10.0413 12.7227 11.9208 12.999 11.9208 14.6878C11.9208 16.0165 11.078 16.8721 9.94174 16.8721C8.57817 16.8721 7.88086 16.0235 7.88086 16.0235L8.24596 14.8171C8.24596 14.8171 8.96274 15.4325 9.56757 15.4325C9.96278 15.4325 10.1235 15.1214 10.1235 14.894C10.1235 13.9535 8.58163 13.9116 8.58163 12.3661C8.58163 11.0654 9.51521 9.80673 11.3997 9.80673C12.1259 9.80673 12.4846 10.0147 12.4846 10.0147Z"
																	fill="#C0C0D8"
																/>
															</g>
															<defs>
																<clipPath id="clip0_819_4668">
																	<rect
																		width="12.2752"
																		height="14"
																		fill="white"
																		transform="translate(6 5.00037)"
																	/>
																</clipPath>
															</defs>
														</svg>